<?xml version="1.0" encoding="utf-8"?>
<!-- Generator: Adobe Illustrator 23.0.0, SVG Export Plug-In . SVG Version: 6.00 Build 0)  -->
<svg version="1.1" id="Livello_1" xmlns="http://www.w3.org/2000/svg" xmlns:xlink="http://www.w3.org/1999/xlink" x="0px" y="0px"
	 viewBox="0 0 260 40" style="enable-background:new 0 0 260 40;" xml:space="preserve">
<style type="text/css">
	.st0{fill:#6AB1BD;}
</style>
<path class="st0" d="M13.5,1c1.8,0,3.6,0.1,5.4,0.4c1.8,0.3,3.5,0.4,5.3,0.4c1.8,0,3.6-0.2,5.4-0.6c0.1,0,0.2-0.1,0.3-0.1
	c0.2,0,0.3,0.1,0.4,0.2c0.1,0.1,0.1,0.3,0.1,0.4c0,0.1,0,0.3-0.1,0.5c-0.6,0.9-1.4,1.5-2.4,1.9c-1,0.4-2.1,0.5-3.3,0.5
	c-0.3,0-0.6,0-0.9,0c-0.3,0-0.6,0-0.9,0c-0.4,0-0.7,0.1-0.9,0.3c-0.2,0.2-0.3,0.5-0.4,1c0,1.8-0.1,3.5-0.2,5.3
	c-0.1,1.8-0.2,3.5-0.3,5.3v0.3c0,0.3,0,0.6,0,0.8c0,0.2,0.1,0.4,0.2,0.5c0.1,0.1,0.3,0.2,0.5,0.2c0.2,0,0.5,0.1,1,0.1h1.7
	c0.9,0,1.4,0.5,1.4,1.4c0,0.6-0.1,1-0.3,1.1c-0.2,0.2-0.6,0.3-1.1,0.3h-0.6l-1.1,0.2h-0.7l-0.2-0.1c-0.7,0-1,0.3-1,1l0.1,0.2
	c0,1.4,0,2.8,0.1,4.2c0.1,1.4,0.1,2.8,0.1,4.3c0.1,0.6,0.1,1.2,0.1,1.8v1.8v2.4c0,0.5-0.1,0.9-0.2,1.1c-0.1,0.3-0.5,0.4-1.1,0.4
	c-0.2,0.1-0.4,0.1-0.6,0.1c-0.2,0-0.4,0-0.6,0c-1.3,0-2.3-0.2-2.8-0.6c-0.5-0.4-0.8-1.3-0.9-2.6c0-0.4-0.1-0.9-0.1-1.3
	c0-0.4-0.1-0.9-0.1-1.3l-0.3-5.4c-0.1-0.4-0.1-0.9-0.1-1.3c0-0.4,0-0.9-0.1-1.3c-0.1-1.8-0.2-3.5-0.2-5.2c0-1.7,0-3.4-0.1-5.2
	c0.1-1.7,0.1-3.4,0.1-4.9c0-1.6,0-3.2,0.2-4.8c0-0.3,0-0.5-0.1-0.8c-0.1-0.2-0.3-0.4-0.7-0.4c-0.2,0-0.4-0.1-0.7-0.1h-0.7
	c-1.3,0-2.6,0.2-3.9,0.6C7.1,4.3,6,4.9,5,5.8c-1,0.8-1.8,1.8-2.4,3c-0.6,1.2-0.9,2.5-0.9,4c0,0.6,0.1,1.1,0.2,1.8
	c0.1,0.6,0.4,1.2,0.7,1.8c0.3,0.6,0.7,1,1.2,1.4c0.5,0.4,1,0.6,1.6,0.6c0.4,0,0.7-0.4,0.8-1.2c0.1-0.5,0.2-0.9,0.5-1.2
	c0.3-0.3,0.7-0.5,1.2-0.5c0.4,0,0.7,0.2,1.1,0.5c0.3,0.4,0.5,0.7,0.5,1.1c0,0.5-0.1,1-0.4,1.4c-0.2,0.4-0.6,0.7-0.9,1
	c-0.4,0.3-0.8,0.5-1.3,0.6c-0.5,0.2-0.9,0.2-1.3,0.2c-0.9,0-1.7-0.2-2.4-0.7c-0.7-0.5-1.3-1.1-1.8-1.8c-0.5-0.7-0.8-1.5-1.1-2.4
	C0.1,14.6,0,13.8,0,13.1c0-1.8,0.4-3.4,1.1-4.9c0.7-1.5,1.7-2.8,3-3.8c1.3-1.1,2.7-1.9,4.3-2.5C10.1,1.3,11.8,1,13.5,1"/>
<path class="st0" d="M40.8,35.9c1.3,0,2,0.6,2,1.7c0,0.3-0.1,0.4-0.4,0.5c-0.2,0.1-0.5,0.1-0.8,0.1c-1.7,0.1-3.4,0.3-5.1,0.4
	c-1.7,0.1-3.4,0.3-5.1,0.4c-0.7,0-1.2-0.1-1.4-0.3c-0.2-0.2-0.4-0.7-0.6-1.4c-0.4-2.1-0.7-4.3-0.9-6.4c-0.1-2.1-0.2-4.2-0.3-6.4
	v-5.1c0-1.8,0.1-3.5,0.2-5.3c0.1-1.8,0.3-3.5,0.5-5.3c0-0.4,0.1-0.7,0.1-1c0.1-0.2,0.1-0.4,0.3-0.5c0.1-0.1,0.3-0.2,0.5-0.2
	c0.2,0,0.5,0,1,0c0.2,0,0.4-0.1,0.7-0.1c0.5,0,1,0.1,1.4,0.2c0.5,0.1,0.9,0.2,1.4,0.3c0.4,0.1,0.7,0.1,0.8,0.2
	c0.1,0.1,0.2,0.3,0.2,0.5v0.3c0,0.1,0,0.3-0.1,0.4c-0.3,2.8-0.6,5.5-0.7,8.3c-0.2,2.7-0.3,5.5-0.3,8.3c0,1.5,0,2.9,0.1,4.3
	c0,1.4,0.1,2.8,0.2,4.3v1c0,0.4,0.1,0.7,0.4,0.9c0.3,0.2,0.6,0.3,1,0.3c0.2,0,0.4-0.1,0.6-0.1c0.2,0,0.4,0,0.6-0.1l2.3-0.2
	c0.2,0,0.4-0.1,0.6-0.1C40.5,36,40.7,36,40.8,35.9"/>
<path class="st0" d="M68.7,23.7c-0.1,1.3-0.3,2.7-0.7,4.4c-0.4,1.7-1.1,3.4-2.1,5.1c-1,1.8-2.5,3.1-4.4,4.1c-1.9,1-3.9,1.4-6,1.4
	c-1.7,0-3.4-0.3-5-1c-1.6-0.7-3-1.7-4.1-3.2c-1.3-1.7-2.2-3.6-2.9-5.7c-0.6-2.1-1-4.1-1-6.2c0-1.8,0.3-3.7,0.8-5.5
	c0.6-1.9,1.4-3.6,2.5-5.1c1.1-1.5,2.4-2.8,4-3.8c1.6-1,3.4-1.5,5.4-1.5c2.1,0,4.2,0.6,6.1,1.7c1.9,1.1,3.4,2.5,4.5,4.3
	c0.9,1.5,1.6,3.1,2,4.8C68.4,19.3,68.6,21.3,68.7,23.7 M61.9,23.2c-0.1-0.8-0.1-1.6-0.1-2.4c0-0.8,0-1.6-0.2-2.4
	c-0.1-0.7-0.3-1.4-0.4-2c-0.1-0.7-0.3-1.4-0.5-2c-0.1-0.7-0.4-1.4-0.6-2.1c-0.3-0.7-0.7-1.3-1.2-1.9c-0.3-0.5-0.7-0.9-1.1-1.1
	c-0.4-0.3-0.8-0.4-1.3-0.4c-0.7,0-1.5,0.3-2.4,1c-0.6,0.4-1.1,1.1-1.5,1.9c-0.4,0.8-0.8,1.6-1.1,2.5c-0.3,0.9-0.5,1.8-0.6,2.7
	c-0.2,0.9-0.3,1.7-0.3,2.4c-0.1,0.8-0.2,1.6-0.2,2.4c0,0.8-0.1,1.6-0.1,2.4c0,1.6,0.1,3.1,0.3,4.5c0.2,1.5,0.5,2.9,1,4.4
	c0.3,0.7,0.6,1.3,1,1.9c0.4,0.6,0.9,1.2,1.3,1.8c0.7,0.6,1.3,0.9,2,0.9c0.7,0,1.4-0.3,2-0.9c0.4-0.3,0.7-0.6,0.9-1
	c0.2-0.4,0.4-0.8,0.5-1.2c1-1.8,1.7-3.6,2-5.5C61.7,27.1,61.9,25.2,61.9,23.2"/>
<path class="st0" d="M77,38.5c-0.7,0-1.4,0-2,0.1c-0.7,0.1-1.3,0.1-2,0.1c-0.4,0-0.6-0.1-0.7-0.3c-0.1-0.2-0.2-0.5-0.2-1.1
	c-0.5-2.9-0.8-5.9-0.9-9.1C71,25.1,71,22,71,19.1c0-1.9,0.1-3.7,0.2-5.4c0.1-1.7,0.3-3.5,0.6-5.2c0.1-0.4,0.2-0.7,0.4-1
	c0.2-0.2,0.5-0.3,0.9-0.3h8.7c1.3,0.1,2.6,0.3,3.8,0.8c1.2,0.4,2.2,1.2,3.2,2.3c0.8,1,1.5,2.1,2,3.5c0.5,1.3,0.8,2.7,0.8,4.2
	c0,1.5-0.3,2.9-0.9,4.4c-0.6,1.4-1.5,2.6-2.8,3.7c-0.1,0.1-0.1,0.1-0.2,0.1c-0.1,0-0.1,0.1-0.1,0.1c-0.7,0.5-1,0.9-1,1.1
	c0,0.2,0.2,0.6,0.6,1.1c0.4,0.7,0.9,1.2,1.4,1.8c0.5,0.5,1,1.1,1.5,1.7c0.1,0.1,0.2,0.3,0.4,0.5c0.2,0.2,0.4,0.4,0.6,0.5
	c0.2,0.2,0.4,0.4,0.5,0.6c0.1,0.2,0.2,0.4,0.2,0.6c0,0.2-0.1,0.5-0.4,0.8c-0.2,0.2-0.5,0.6-0.8,1c-0.3,0.4-0.6,0.9-0.9,1.3
	c-0.3,0.4-0.6,0.8-1,1.1s-0.8,0.5-1.3,0.5c-0.6,0-1.1-0.3-1.8-1c-0.6-0.7-1.3-1.5-1.9-2.3c-0.6-0.9-1.1-1.8-1.6-2.6
	c-0.5-0.9-0.8-1.5-1-1.9c-0.1-0.2-0.2-0.4-0.3-0.5c-0.1-0.2-0.1-0.4-0.2-0.6c-0.1-0.2-0.2-0.3-0.3-0.5c-0.1-0.1-0.3-0.2-0.5-0.2
	c-0.4,0-0.7,0.1-0.9,0.4c-0.2,0.2-0.3,0.5-0.3,0.7c0,0.2,0,0.4,0.1,0.6c0,0.2,0.1,0.4,0.1,0.6c-0.1,0.9-0.1,1.8-0.1,2.7
	c0,0.9,0,1.8,0,2.7v0.3c0,0.6-0.1,1-0.2,1.1C77.9,38.3,77.6,38.4,77,38.5 M79,27.2c1,0,1.8-0.3,2.5-0.9c0.7-0.6,1.3-1.3,1.7-2.2
	s0.8-1.8,1-2.9c0.2-1,0.3-2,0.3-2.9c0-1.1-0.1-2.1-0.4-3.2c-0.2-1.1-0.6-2.2-1-3.3c-0.1-0.2-0.3-0.5-0.5-0.8
	c-0.2-0.3-0.5-0.6-0.8-0.9c-0.3-0.3-0.6-0.5-1-0.7c-0.3-0.2-0.7-0.3-1-0.3c-0.5,0-0.7,0.5-0.8,1.5c-0.2,2.3-0.3,4.5-0.4,6.8
	c-0.1,2.2-0.2,4.4-0.3,6.6v2c0.1,0.4,0.1,0.8,0.2,0.9C78.7,27.1,78.8,27.2,79,27.2"/>
<path class="st0" d="M95.3,38.9c-0.8,0-1.5-0.1-2-0.2c-0.5-0.2-0.7-0.4-0.7-0.7c0-0.2,0-0.4,0.1-0.7c0.1-0.3,0.2-0.6,0.3-1
	c0.9-2.6,1.7-5.3,2.3-8c0.6-2.7,1.2-5.4,1.8-8c0.5-2,1-4,1.6-5.9c0.6-1.9,1.1-3.9,1.7-5.9c0.2-0.9,0.9-1.4,2-1.4
	c0.8,0,1.4,0,1.9,0.1c0.5,0.1,0.8,0.2,1.1,0.4c0.3,0.2,0.5,0.5,0.7,0.9c0.2,0.4,0.4,1,0.6,1.7c1.1,4,2.3,7.9,3.6,11.9
	c1.2,4,2.5,7.9,3.8,11.9c0.2,0.6,0.4,1.1,0.6,1.7c0.2,0.6,0.4,1.2,0.4,1.8c0,0.8-0.5,1.2-1.4,1.2h-2.8c-0.8,0-1.4,0-1.8-0.1
	c-0.4,0-0.8-0.1-1-0.3c-0.3-0.2-0.5-0.5-0.6-0.9c-0.2-0.4-0.4-1-0.7-1.8c-0.1-0.2-0.1-0.4-0.2-0.6c-0.1-0.2-0.1-0.4-0.2-0.6
	l-0.7-2.5c-0.1-0.2-0.1-0.4-0.2-0.6c-0.1-0.2-0.1-0.4-0.2-0.6c-0.1-0.4-0.3-0.8-0.3-1c-0.1-0.3-0.2-0.4-0.3-0.6
	c-0.1-0.1-0.3-0.2-0.6-0.2c-0.2,0-0.6-0.1-1-0.1c-0.6,0-1.2,0-1.9-0.1c-0.7-0.1-1.3-0.1-1.8-0.1c-0.4,0-0.7,0.1-0.8,0.4
	c-0.1,0.3-0.3,0.7-0.5,1.4c-0.3,1.2-0.6,2.4-0.9,3.7c-0.3,1.2-0.5,2.5-0.7,3.7c-0.1,0.4-0.2,0.7-0.3,0.9
	C95.9,38.8,95.7,38.9,95.3,38.9 M101,18.8c-0.1,0.3-0.3,0.8-0.6,1.5c-0.2,0.7-0.5,1.4-0.7,2.2c-0.2,0.8-0.4,1.5-0.6,2.2
	c-0.2,0.7-0.3,1.2-0.3,1.6c0,0.5,0.2,0.8,0.5,0.9c0.4,0.1,1,0.2,1.9,0.2h1.4c0.3,0,0.5-0.1,0.7-0.2c0.2-0.1,0.2-0.3,0.1-0.6
	c-0.4-1.2-0.9-2.4-1.3-3.7C101.9,21.6,101.4,20.2,101,18.8"/>
<path class="st0" d="M129.8,23.6c-0.3,0-0.6-0.1-0.8-0.2c-0.2-0.2-0.3-0.4-0.3-0.8c0-0.6,0.4-0.9,1.1-0.9c0.9-0.1,1.7-0.1,2.6-0.2
	c0.8-0.1,1.7-0.1,2.5-0.1h1.1c0.7,0,1.2,0.1,1.4,0.2c0.2,0.1,0.4,0.4,0.4,0.9c0,0.1,0,0.2,0,0.3c0,0.1,0,0.3,0,0.4
	c-0.2,1.3-0.3,2.7-0.4,4c-0.1,1.3-0.1,2.7-0.1,4c0,1.2,0,2.4,0.1,3.5c0.1,1.1,0.1,2.2,0.3,3.3c-0.2,0.1-0.4,0.2-0.5,0.3
	c-0.2,0-0.4,0.1-0.5,0.1c-0.1,0-0.3,0-0.4,0c-0.1,0-0.2,0-0.3,0c-0.3,0.1-0.6,0.1-0.8,0.2c-0.3,0.1-0.6,0.1-0.8,0.1
	c-0.3,0-0.7-0.1-1.1-0.3c-0.3-0.1-0.5-0.2-0.5-0.4c-0.1-0.2-0.1-0.4-0.2-0.6c0-0.2-0.1-0.4-0.1-0.7c-0.1-0.2-0.2-0.4-0.4-0.5
	c-0.4,0.3-0.9,0.6-1.4,1c-0.5,0.3-1,0.7-1.6,1c-0.5,0.3-1.1,0.5-1.7,0.7c-0.6,0.2-1.2,0.3-1.8,0.3c-1.8,0-3.5-0.8-5.1-2.3
	c-0.8-0.8-1.6-1.7-2.2-2.6c-0.6-0.9-1.1-1.9-1.5-2.9c-0.4-1-0.7-2.2-0.9-3.4c-0.2-1.2-0.3-2.6-0.3-4.1c0-3.6,0.6-6.5,1.8-8.9
	c1.2-2.4,3.2-4.4,5.9-6.1c0.7-0.4,1.4-0.7,2.3-0.9c0.9-0.2,1.8-0.4,2.8-0.4c0.9,0,1.9,0.1,2.8,0.4c0.9,0.3,1.7,0.7,2.5,1.3
	c0.9,0.8,1.6,1.7,2.2,2.8c0.5,1.1,0.8,2.2,0.8,3.3c0,0.8-0.2,1.5-0.5,2.3c-0.4,0.7-1,1.1-1.8,1.1c-0.6,0-1-0.1-1.3-0.4
	c-0.3-0.3-0.5-0.7-0.5-1.3c0-0.3,0.1-0.6,0.2-0.9c0.1-0.3,0.3-0.5,0.6-0.5c0.6-0.2,0.9-0.6,0.9-1c0-0.2,0-0.4-0.1-0.5
	c-0.1-0.2-0.2-0.4-0.3-0.6c-0.9-1.8-2.2-2.6-3.9-2.6c-1.4,0-2.6,0.3-3.5,0.9c-1,0.6-1.8,1.3-2.4,2.3c-0.6,1-1.1,2.1-1.4,3.3
	c-0.3,1.3-0.4,2.6-0.4,4c0,2.4,0.4,4.6,1.2,6.7c0.8,2.1,1.9,3.7,3.4,4.9c0.3,0.3,0.7,0.5,1.2,0.7c0.4,0.2,0.9,0.3,1.5,0.3
	c0.3,0,0.6,0,1-0.1c0.3-0.1,0.7-0.2,1-0.3c0.3-0.2,0.5-0.4,0.7-0.6c0.2-0.2,0.3-0.6,0.3-0.9L132,31v-0.3c0-0.3,0.1-0.6,0.1-0.9V29
	v-0.8l-0.1-1.7v-0.8c0-0.5,0-0.9,0-1.1c0-0.3-0.1-0.5-0.2-0.6c-0.1-0.1-0.4-0.2-0.6-0.2C130.8,23.6,130.4,23.6,129.8,23.6"/>
<path class="st0" d="M141.6,38.9c-0.8,0-1.5-0.1-2-0.2c-0.5-0.2-0.7-0.4-0.7-0.7c0-0.2,0-0.4,0.1-0.7c0.1-0.3,0.2-0.6,0.3-1
	c0.9-2.6,1.7-5.3,2.3-8c0.6-2.7,1.2-5.4,1.8-8c0.5-2,1-4,1.6-5.9c0.6-1.9,1.1-3.9,1.7-5.9c0.2-0.9,0.9-1.4,2-1.4
	c0.8,0,1.4,0,1.9,0.1c0.5,0.1,0.8,0.2,1.1,0.4c0.3,0.2,0.5,0.5,0.7,0.9c0.2,0.4,0.4,1,0.6,1.7c1.1,4,2.3,7.9,3.6,11.9
	c1.2,4,2.5,7.9,3.8,11.9c0.2,0.6,0.4,1.1,0.6,1.7c0.2,0.6,0.4,1.2,0.4,1.8c0,0.8-0.5,1.2-1.4,1.2h-2.8c-0.8,0-1.4,0-1.8-0.1
	c-0.4,0-0.8-0.1-1-0.3c-0.3-0.2-0.5-0.5-0.6-0.9c-0.2-0.4-0.4-1-0.7-1.8c-0.1-0.2-0.1-0.4-0.2-0.6c-0.1-0.2-0.1-0.4-0.2-0.6
	l-0.7-2.5c-0.1-0.2-0.1-0.4-0.2-0.6c-0.1-0.2-0.1-0.4-0.2-0.6c-0.1-0.4-0.3-0.8-0.3-1c-0.1-0.3-0.2-0.4-0.3-0.6
	c-0.1-0.1-0.3-0.2-0.6-0.2c-0.2,0-0.6-0.1-1-0.1c-0.6,0-1.2,0-1.9-0.1c-0.7-0.1-1.3-0.1-1.8-0.1c-0.4,0-0.7,0.1-0.8,0.4
	c-0.1,0.3-0.3,0.7-0.5,1.4c-0.3,1.2-0.6,2.4-0.9,3.7c-0.3,1.2-0.5,2.5-0.7,3.7c-0.1,0.4-0.2,0.7-0.3,0.9
	C142.2,38.8,141.9,38.9,141.6,38.9 M147.3,18.8c-0.1,0.3-0.3,0.8-0.6,1.5c-0.2,0.7-0.5,1.4-0.7,2.2c-0.2,0.8-0.4,1.5-0.6,2.2
	c-0.2,0.7-0.3,1.2-0.3,1.6c0,0.5,0.2,0.8,0.5,0.9c0.4,0.1,1,0.2,1.9,0.2h1.4c0.3,0,0.5-0.1,0.7-0.2c0.2-0.1,0.2-0.3,0.1-0.6
	c-0.4-1.2-0.9-2.4-1.3-3.7C148.1,21.6,147.7,20.2,147.3,18.8"/>
<path class="st0" d="M168.6,38.5c-0.7,0-1.4,0-2,0.1c-0.7,0.1-1.3,0.1-2,0.1c-0.4,0-0.6-0.1-0.7-0.3c-0.1-0.2-0.2-0.5-0.2-1.1
	c-0.5-2.9-0.8-5.9-0.9-9.1c-0.1-3.2-0.2-6.2-0.2-9.2c0-1.9,0.1-3.7,0.2-5.4c0.1-1.7,0.3-3.5,0.6-5.2c0.1-0.4,0.2-0.7,0.4-1
	c0.2-0.2,0.5-0.3,0.9-0.3h8.7c1.3,0.1,2.6,0.3,3.8,0.8c1.2,0.4,2.2,1.2,3.2,2.3c0.8,1,1.5,2.1,2,3.5c0.5,1.3,0.8,2.7,0.8,4.2
	c0,1.5-0.3,2.9-0.9,4.4c-0.6,1.4-1.5,2.6-2.8,3.7c-0.1,0.1-0.1,0.1-0.2,0.1c-0.1,0-0.1,0.1-0.1,0.1c-0.7,0.5-1,0.9-1,1.1
	c0,0.2,0.2,0.6,0.6,1.1c0.4,0.7,0.9,1.2,1.4,1.8c0.5,0.5,1,1.1,1.5,1.7c0.1,0.1,0.2,0.3,0.4,0.5c0.2,0.2,0.4,0.4,0.6,0.5
	c0.2,0.2,0.4,0.4,0.5,0.6c0.1,0.2,0.2,0.4,0.2,0.6c0,0.2-0.1,0.5-0.4,0.8c-0.2,0.2-0.5,0.6-0.8,1c-0.3,0.4-0.6,0.9-0.9,1.3
	c-0.3,0.4-0.6,0.8-1,1.1c-0.4,0.3-0.8,0.5-1.3,0.5c-0.6,0-1.1-0.3-1.8-1c-0.6-0.7-1.3-1.5-1.9-2.3c-0.6-0.9-1.1-1.8-1.6-2.6
	c-0.5-0.9-0.8-1.5-1-1.9c-0.1-0.2-0.2-0.4-0.3-0.5c-0.1-0.2-0.1-0.4-0.2-0.6c-0.1-0.2-0.2-0.3-0.3-0.5c-0.1-0.1-0.3-0.2-0.5-0.2
	c-0.4,0-0.7,0.1-0.9,0.4c-0.2,0.2-0.3,0.5-0.3,0.7c0,0.2,0,0.4,0.1,0.6c0,0.2,0.1,0.4,0.1,0.6c-0.1,0.9-0.1,1.8-0.1,2.7
	c0,0.9,0,1.8,0,2.7v0.3c0,0.6-0.1,1-0.2,1.1C169.5,38.3,169.2,38.4,168.6,38.5 M170.6,27.2c1,0,1.8-0.3,2.5-0.9
	c0.7-0.6,1.3-1.3,1.7-2.2c0.4-0.9,0.8-1.8,1-2.9c0.2-1,0.3-2,0.3-2.9c0-1.1-0.1-2.1-0.4-3.2c-0.2-1.1-0.6-2.2-1-3.3
	c-0.1-0.2-0.3-0.5-0.5-0.8c-0.2-0.3-0.5-0.6-0.8-0.9c-0.3-0.3-0.6-0.5-1-0.7c-0.3-0.2-0.7-0.3-1-0.3c-0.5,0-0.7,0.5-0.8,1.5
	c-0.2,2.3-0.3,4.5-0.4,6.8c-0.1,2.2-0.2,4.4-0.3,6.6v2c0.1,0.4,0.1,0.8,0.2,0.9C170.3,27.1,170.4,27.2,170.6,27.2"/>
<path class="st0" d="M192.5,7.1c2.3,0,4.4,0.4,6.2,1.1c1.8,0.7,3.3,1.8,4.5,3.1c1.2,1.3,2.2,2.9,2.8,4.7c0.6,1.8,1,3.9,1,6.1
	c0,2.3-0.3,4.4-0.9,6.4c-0.6,2-1.5,3.7-2.7,5.2c-1.2,1.5-2.6,2.6-4.2,3.5c-1.7,0.9-3.5,1.4-5.5,1.5c-0.4,0-0.8,0.1-1.2,0.1
	c-0.4,0-0.8,0-1.2,0c-0.4,0-0.8,0-1.2,0c-0.4,0-0.8,0-1.2-0.1c-0.9,0-1.5-0.1-1.8-0.4c-0.3-0.3-0.5-0.9-0.6-1.9
	c-0.1-2.1-0.1-4.1-0.2-6.1c-0.1-2-0.2-4-0.3-6v-1.2c0-1.1,0-2.2,0-3.3c0-1.1,0-2.2,0-3.3c0-1.1,0-2.2,0.1-3.4c0-1.1,0.1-2.3,0.2-3.4
	c0-0.5,0.1-0.8,0.1-1.1c0.1-0.2,0.2-0.4,0.3-0.6c0.2-0.1,0.4-0.2,0.6-0.3c0.3-0.1,0.6-0.1,1.1-0.2c0.7-0.1,1.5-0.1,2.2-0.2
	C191.1,7.1,191.8,7.1,192.5,7.1 M192.1,22.9c0,0.6-0.1,1.1-0.1,1.6v1.5c0,1.7,0,3.3,0.1,4.9c0,1.6,0.1,3.3,0.3,4.9
	c0,0.9,0.2,1.3,0.6,1.3c0.2,0,0.6-0.1,1.1-0.4c2-1.3,3.4-3.2,4.4-5.5c0.9-2.4,1.4-5,1.4-8c0-3-0.6-6-1.7-9c-0.3-0.9-0.7-1.7-1.3-2.4
	c-0.6-0.7-1.3-1.2-2.1-1.7c-0.6-0.3-1-0.5-1.3-0.5c-0.6,0-0.9,0.6-1,1.7c-0.2,2.1-0.3,4.1-0.3,6.1C192.2,19.3,192.2,21.2,192.1,22.9
	"/>
<path class="st0" d="M222.6,37.5l0.3-0.1h0.2c0.2,0,0.4,0,0.6-0.1c0.2,0,0.4-0.1,0.6-0.1c0.3,0,0.6,0.1,0.9,0.4h-0.1
	c0,0.3-0.1,0.4-0.2,0.5c-0.2,0-0.3,0.1-0.3,0.1c-1,0.2-2,0.4-3,0.6c-1,0.1-2,0.2-3,0.2c-2.3,0-4.2-0.4-5.5-1.1
	c-1.4-0.7-2.3-2-2.8-3.8c-0.2-0.8-0.4-1.5-0.5-2.3c-0.1-0.7-0.2-1.5-0.2-2.3c0-0.9-0.1-1.8-0.1-2.7c0-0.9,0-1.8,0-2.7
	c0-2.7,0.1-5.2,0.3-7.7c0.2-2.5,0.5-4.9,0.9-7.3c0.1-0.5,0.2-0.9,0.3-1.1c0.1-0.3,0.2-0.5,0.3-0.6c0.2-0.1,0.4-0.2,0.7-0.2
	c0.3,0,0.7,0,1.2,0c0.9,0,1.8,0,2.7,0c0.9,0,1.8,0,2.6,0c0.9,0,1.7,0,2.6,0c0.9,0,1.7,0.1,2.6,0.1c0.2,0.1,0.4,0.1,0.7,0.2
	c0.3,0,0.5,0.1,0.7,0.1c0.4,0.1,0.6,0.2,0.6,0.5c0,0.2,0,0.5,0,0.8c0.1,0.3,0,0.4-0.2,0.5c-0.2,0.1-0.4,0.1-0.6,0.2
	c-0.8,0.1-1.5,0.1-2.3,0.2c-0.8,0.1-1.6,0.1-2.4,0.1h-0.6c-0.2,0-0.4,0-0.6-0.1c-0.4,0-0.8,0.1-1.1,0.3c-0.3,0.2-0.4,0.5-0.5,1
	c-0.2,1.8-0.4,3.6-0.6,5.4c-0.2,1.8-0.3,3.6-0.3,5.4c0,0.6,0.3,0.9,1,0.9h3.4c0.3,0,0.5,0,0.8,0.1c0.2,0.1,0.4,0.3,0.4,0.7
	c0,0.9-0.4,1.3-1.1,1.3c-0.6,0-1.2,0-1.8,0.1c-0.6,0.1-1.2,0.1-1.9,0.1c-0.3,0-0.5,0-0.7,0.1c-0.2,0.1-0.3,0.3-0.3,0.7v0.9l-0.1,1.8
	c0,1.1,0.1,2.3,0.2,3.3c0.1,1.1,0.4,2,0.9,2.9c0.4,0.8,1.1,1.5,1.9,2C220.1,37.3,221.2,37.5,222.6,37.5"/>
<path class="st0" d="M227.3,35c0-2.6,0-5.1-0.1-7.6c-0.1-2.5-0.1-5-0.1-7.5c0-1.6,0-3.2,0.1-4.7c0-1.6,0.1-3.2,0.2-4.8
	c0.1-1.2,0.3-2,0.8-2.3c0.4-0.3,1.3-0.5,2.6-0.5c0.5,0,1,0,1.6,0.1c0.5,0.1,1,0.1,1.6,0.2c0.7,0,1.1,0.1,1.4,0.4
	c0.3,0.3,0.5,0.7,0.7,1.3c0.9,2.9,2,5.8,3.2,8.5c1.2,2.7,2.5,5.4,3.8,8c0.1,0.1,0.2,0.3,0.3,0.5c0.1,0.2,0.3,0.3,0.7,0.4
	c0-0.1,0.1-0.2,0.1-0.3v-0.3c0-0.5,0-0.9-0.1-1.4c-0.1-0.4-0.1-0.9-0.2-1.4c-0.2-2.4-0.3-4.8-0.3-7.1c0-2.4,0-4.7,0-7.1
	c0-0.7,0.2-1.2,0.6-1.6c0.4-0.4,0.9-0.6,1.5-0.6c0.5,0,1,0.1,1.5,0.4c0.3,0.1,0.4,0.3,0.4,0.6v0.7c-0.2,2.1-0.4,4.2-0.6,6.4
	c-0.2,2.2-0.3,4.3-0.3,6.6c0,1.3,0,2.6,0.1,3.8c0.1,1.3,0.1,2.6,0.1,3.9c0,1.4,0.1,2.8,0.2,4.2c0.1,1.4,0.2,2.7,0.2,4
	c0,0.4-0.1,0.7-0.3,0.8c-0.2,0.1-0.6,0.2-1.3,0.2c-0.5,0-1,0-1.5-0.1c-0.5-0.1-0.9-0.1-1.3-0.1h-0.4c-0.6,0-1.1-0.1-1.5-0.4
	c-0.4-0.3-0.7-0.7-1-1.1c-1.3-1.9-2.4-3.9-3.4-5.9c-0.9-2-1.8-4-2.7-6.1c-0.4-0.9-0.9-1.8-1.2-2.7c-0.4-0.9-0.7-1.8-1.1-2.7
	c-0.1-0.2-0.2-0.4-0.3-0.6c-0.1-0.2-0.2-0.3-0.5-0.4c-0.1,0.2-0.2,0.4-0.3,0.6c0,0.2-0.1,0.4-0.1,0.6c0,0.1,0,0.3,0,0.4
	c0,0.1,0,0.2,0,0.3c0,0.5-0.1,1-0.1,1.6c0,0.5,0,1.1,0,1.6c0,1.1,0,2.2,0.1,3.3c0.1,1.1,0.1,2.2,0.2,3.3l0.2,2.6
	c0,0.2,0.1,0.4,0.1,0.6c0,0.2,0,0.4,0,0.6c0,0.6,0,1.2,0.1,1.8c0.1,0.6,0.1,1.3,0.1,1.8c0,0.4-0.2,0.6-0.7,0.8
	c-0.5,0.1-0.9,0.2-1.4,0.2c-0.3,0-0.6-0.1-0.8-0.3c-0.2-0.2-0.3-0.5-0.4-0.9c-0.1-0.4-0.1-0.8-0.2-1.2
	C227.4,35.9,227.3,35.5,227.3,35"/>
<path class="st0" d="M247.2,9.7c0-0.3,0.1-0.5,0.2-0.6c0.1-0.2,0.3-0.3,0.7-0.3c2.8,0,5.3,0.7,7.3,2c2,1.3,3.2,3.4,3.7,6.2
	c0,0.2,0.1,0.3,0.1,0.4v0.4c0,1.3-0.4,2.4-1.1,3.1c-0.8,0.8-1.8,1.2-3.1,1.4c-0.2-0.2-0.2-0.4-0.2-0.7c0-0.3,0-0.5-0.1-0.7
	c-0.2-0.4-0.4-0.7-0.7-0.9c-0.3-0.2-0.6-0.3-1-0.3c-0.5,0-0.9,0.2-1.1,0.5c-0.3,0.3-0.4,0.7-0.4,1.1c0,0.7,0.3,1.3,0.8,1.7
	c0.6,0.4,1.1,0.6,1.7,0.6h0.5c1.6,0,2.9-0.5,4-1.6c1.1-1,1.6-2.4,1.6-4v-0.7c0-1.9-0.6-3.6-1.7-5c-2.6-3.5-6-5.3-10.2-5.3
	c-0.7,0-1.5,0-2.2,0.1c-0.8,0.1-1.5,0.1-2.2,0.1c-0.6,0-0.5,1.1-0.4,3C243.4,11.2,245.7,10.1,247.2,9.7"/>
</svg>
